<?xml version="1.0" encoding="UTF-8" standalone="no"?>
<!DOCTYPE svg PUBLIC "-//W3C//DTD SVG 1.1//EN"
 "http://www.w3.org/Graphics/SVG/1.1/DTD/svg11.dtd">
<!-- Generated by graphviz version 2.38.0 (20140413.2041)
 -->
<!-- Title: %3 Pages: 1 -->
<svg width="754pt" height="231pt"
 viewBox="0.00 0.00 753.86 231.00" xmlns="http://www.w3.org/2000/svg" xmlns:xlink="http://www.w3.org/1999/xlink">
<g id="graph0" class="graph" transform="scale(1 1) rotate(0) translate(4 227)">
<title>%3</title>
<polygon fill="#333333" stroke="none" points="-4,4 -4,-227 749.861,-227 749.861,4 -4,4"/>
<text text-anchor="middle" x="372.931" y="-9.2" font-family="Times,serif" font-size="16.00" fill="white">Network Map</text>
<!-- R4 -->
<g id="node1" class="node"><title>R4</title>
<polygon fill="#006699" stroke="#006699" points="83.8611,-99 7.86111,-99 7.86111,-26 83.8611,-26 83.8611,-99"/>
<text text-anchor="middle" x="45.8611" y="-58.8" font-family="Helvetica,sans-Serif" font-size="14.00" fill="white">R4</text>
</g>
<!-- R3 -->
<g id="node4" class="node"><title>R3</title>
<polygon fill="#006699" stroke="#006699" points="206.861,-223 130.861,-223 130.861,-150 206.861,-150 206.861,-223"/>
<text text-anchor="middle" x="168.861" y="-182.8" font-family="Helvetica,sans-Serif" font-size="14.00" fill="white">R3</text>
</g>
<!-- R4&#45;&#45;R3 -->
<g id="edge5" class="edge"><title>R4&#45;&#45;R3</title>
<path fill="none" stroke="green" stroke-dasharray="5,2" d="M50,-99.204C52.7468,-110.632 57.3047,-122.715 64.8611,-132 81.6509,-152.63 108.49,-166.156 130.698,-174.446"/>
<text text-anchor="middle" x="114.861" y="-120.8" font-family="Courier,monospace" font-size="14.00" fill="white"> &#160;&#160;&#160;&#160;&#160;&#160;&#160;&#160;&#160;&#160;&#160;</text>
<text text-anchor="middle" x="105.698" y="-163.246" font-family="Courier,monospace" font-size="14.00" fill="white">Eth0/1</text>
<text text-anchor="middle" x="25" y="-103.004" font-family="Courier,monospace" font-size="14.00" fill="white">Eth0/0</text>
</g>
<!-- R5 -->
<g id="node2" class="node"><title>R5</title>
<polygon fill="#006699" stroke="#006699" points="206.861,-99 130.861,-99 130.861,-26 206.861,-26 206.861,-99"/>
<text text-anchor="middle" x="168.861" y="-58.8" font-family="Helvetica,sans-Serif" font-size="14.00" fill="white">R5</text>
</g>
<!-- R5&#45;&#45;R3 -->
<g id="edge6" class="edge"><title>R5&#45;&#45;R3</title>
<path fill="none" stroke="green" stroke-dasharray="5,2" d="M168.861,-99.1154C168.861,-115.01 168.861,-133.704 168.861,-149.629"/>
<text text-anchor="middle" x="218.861" y="-120.8" font-family="Courier,monospace" font-size="14.00" fill="white"> &#160;&#160;&#160;&#160;&#160;&#160;&#160;&#160;&#160;&#160;&#160;</text>
<text text-anchor="middle" x="143.861" y="-138.429" font-family="Courier,monospace" font-size="14.00" fill="white">Eth0/2</text>
<text text-anchor="middle" x="143.861" y="-102.915" font-family="Courier,monospace" font-size="14.00" fill="white">Eth0/0</text>
</g>
<!-- R1 -->
<g id="node3" class="node"><title>R1</title>
<polygon fill="#006699" stroke="#006699" points="452.861,-223 376.861,-223 376.861,-150 452.861,-150 452.861,-223"/>
<text text-anchor="middle" x="414.861" y="-182.8" font-family="Helvetica,sans-Serif" font-size="14.00" fill="white">R1</text>
</g>
<!-- SW1 -->
<g id="node5" class="node"><title>SW1</title>
<polygon fill="#006699" stroke="#006699" points="459.361,-99 370.361,-99 370.361,-26 459.361,-26 459.361,-99"/>
<text text-anchor="middle" x="414.861" y="-58.8" font-family="Helvetica,sans-Serif" font-size="14.00" fill="white">SW1</text>
</g>
<!-- SW1&#45;&#45;R1 -->
<g id="edge1" class="edge"><title>SW1&#45;&#45;R1</title>
<path fill="none" stroke="green" stroke-dasharray="5,2" d="M414.861,-99.1154C414.861,-115.01 414.861,-133.704 414.861,-149.629"/>
<text text-anchor="middle" x="464.861" y="-120.8" font-family="Courier,monospace" font-size="14.00" fill="white"> &#160;&#160;&#160;&#160;&#160;&#160;&#160;&#160;&#160;&#160;&#160;</text>
<text text-anchor="middle" x="389.861" y="-138.429" font-family="Courier,monospace" font-size="14.00" fill="white">Eth0/0</text>
<text text-anchor="middle" x="389.861" y="-102.915" font-family="Courier,monospace" font-size="14.00" fill="white">Eth0/1</text>
</g>
<!-- SW1&#45;&#45;R3 -->
<g id="edge3" class="edge"><title>SW1&#45;&#45;R3</title>
<path fill="none" stroke="green" stroke-dasharray="5,2" d="M370.312,-85.5933C323.652,-108.734 251.141,-144.695 207.023,-166.574"/>
<text text-anchor="middle" x="356.861" y="-120.8" font-family="Courier,monospace" font-size="14.00" fill="white"> &#160;&#160;&#160;&#160;&#160;&#160;&#160;&#160;&#160;&#160;&#160;</text>
<text text-anchor="middle" x="232.023" y="-155.374" font-family="Courier,monospace" font-size="14.00" fill="white">Eth0/0</text>
<text text-anchor="middle" x="345.312" y="-74.3933" font-family="Courier,monospace" font-size="14.00" fill="white">Eth0/3</text>
</g>
<!-- R2 -->
<g id="node6" class="node"><title>R2</title>
<polygon fill="#006699" stroke="#006699" points="636.861,-223 560.861,-223 560.861,-150 636.861,-150 636.861,-223"/>
<text text-anchor="middle" x="598.861" y="-182.8" font-family="Helvetica,sans-Serif" font-size="14.00" fill="white">R2</text>
</g>
<!-- SW1&#45;&#45;R2 -->
<g id="edge2" class="edge"><title>SW1&#45;&#45;R2</title>
<path fill="none" stroke="green" stroke-dasharray="5,2" d="M459.479,-84.6671C477.468,-93.8274 498.119,-105.158 515.861,-117 520.795,-120.293 541.261,-137.177 560.633,-153.357"/>
<text text-anchor="middle" x="584.861" y="-120.8" font-family="Courier,monospace" font-size="14.00" fill="white"> &#160;&#160;&#160;&#160;&#160;&#160;&#160;&#160;&#160;&#160;&#160;</text>
<text text-anchor="middle" x="535.633" y="-142.157" font-family="Courier,monospace" font-size="14.00" fill="white">Eth0/0</text>
<text text-anchor="middle" x="484.479" y="-73.4671" font-family="Courier,monospace" font-size="14.00" fill="white">Eth0/2</text>
</g>
<!-- SW2 -->
<g id="node7" class="node"><title>SW2</title>
<polygon fill="#006699" stroke="#006699" points="705.361,-99 616.361,-99 616.361,-26 705.361,-26 705.361,-99"/>
<text text-anchor="middle" x="660.861" y="-58.8" font-family="Helvetica,sans-Serif" font-size="14.00" fill="white">SW2</text>
</g>
<!-- SW2&#45;&#45;R2 -->
<g id="edge4" class="edge"><title>SW2&#45;&#45;R2</title>
<path fill="none" stroke="green" stroke-dasharray="5,2" d="M651.831,-99.2453C648.454,-110.069 644.131,-121.788 638.861,-132 635.777,-137.977 632.037,-143.993 628.096,-149.721"/>
<text text-anchor="middle" x="695.861" y="-120.8" font-family="Courier,monospace" font-size="14.00" fill="white"> &#160;&#160;&#160;&#160;&#160;&#160;&#160;&#160;&#160;&#160;&#160;</text>
<text text-anchor="middle" x="603.096" y="-138.521" font-family="Courier,monospace" font-size="14.00" fill="white">Eth0/1</text>
<text text-anchor="middle" x="622.831" y="-103.045" font-family="Courier,monospace" font-size="14.00" fill="white">Eth0/11</text>
</g>
</g>
</svg>
